<?xml version="1.0" standalone="no"?>
<!DOCTYPE svg PUBLIC "-//W3C//DTD SVG 20010904//EN"
 "http://www.w3.org/TR/2001/REC-SVG-20010904/DTD/svg10.dtd">
<svg version="1.0" xmlns="http://www.w3.org/2000/svg"
 width="801.000000pt" height="801.000000pt" viewBox="0 0 801.000000 801.000000"
 preserveAspectRatio="xMidYMid meet">
<metadata>
Created by potrace 1.14, written by Peter Selinger 2001-2017
</metadata>
<g transform="translate(0.000000,801.000000) scale(0.100000,-0.100000)"
fill="#000000" stroke="none">
<path d="M1190 6504 c0 -4 14 -30 32 -58 17 -28 39 -64 48 -81 10 -16 64 -109
122 -205 57 -96 107 -182 111 -190 4 -8 40 -69 80 -135 l73 -120 767 -3 767
-2 0 400 0 400 -1000 0 c-550 0 -1000 -3 -1000 -6z"/>
<path d="M3430 4531 l0 -1980 183 -318 c247 -428 409 -707 413 -712 2 -2 4
1119 4 2492 l0 2497 -300 0 -300 0 0 -1979z"/>
<path d="M4231 4015 c0 -1372 2 -2495 4 -2495 2 0 21 30 42 67 21 38 43 76 48
85 38 65 121 208 136 235 10 17 29 50 43 72 15 22 26 43 26 46 0 2 18 35 40
72 22 38 45 75 49 83 5 8 55 95 112 193 l102 178 -1 1962 c0 1079 -1 1970 -1
1980 -1 16 -22 17 -301 17 l-299 0 0 -2495z"/>
<path d="M5025 6110 l0 -400 411 0 410 0 90 -89 89 -90 0 -210 0 -211 -88 -88
-88 -88 -400 0 c-221 1 -403 -3 -406 -8 -4 -6 -8 -726 -4 -782 1 -7 163 -10
521 -10 l520 1 373 374 372 374 1 439 1 439 -376 375 -375 374 -525 0 -526 0
0 -400z"/>
</g>
</svg>
