<?xml version="1.0" encoding="UTF-8"?>
<!DOCTYPE svg PUBLIC "-//W3C//DTD SVG 1.1//EN" "http://www.w3.org/Graphics/SVG/1.1/DTD/svg11.dtd">
<svg xmlns="http://www.w3.org/2000/svg" version="1.1" width="801px" height="800px" style="shape-rendering:geometricPrecision; text-rendering:geometricPrecision; image-rendering:optimizeQuality; fill-rule:evenodd; clip-rule:evenodd" xmlns:xlink="http://www.w3.org/1999/xlink">
<g><path style="opacity:0.981" fill="#fefffe" d="M 422.5,148.5 C 442.833,148.5 463.167,148.5 483.5,148.5C 483.667,281.167 483.5,413.834 483,546.5C 463.252,580.997 443.252,615.331 423,649.5C 422.5,482.5 422.333,315.5 422.5,148.5 Z"/></g>
<g><path style="opacity:0.984" fill="#fefffe" d="M 117.5,149.5 C 184.5,149.5 251.5,149.5 318.5,149.5C 318.5,176.5 318.5,203.5 318.5,230.5C 267.499,230.667 216.499,230.5 165.5,230C 149.1,203.359 133.1,176.526 117.5,149.5 Z"/></g>
<g><path style="opacity:0.981" fill="#fefffe" d="M 342.5,149.5 C 362.833,149.5 383.167,149.5 403.5,149.5C 403.833,316.168 403.5,482.835 402.5,649.5C 382.414,615.664 362.581,581.664 343,547.5C 342.5,414.834 342.333,282.167 342.5,149.5 Z"/></g>
<g><path style="opacity:0.983" fill="#fefffe" d="M 501.5,149.5 C 537.168,149.333 572.835,149.5 608.5,150C 633,174.5 657.5,199 682,223.5C 682.667,253.5 682.667,283.5 682,313.5C 657.5,338 633,362.5 608.5,387C 573.168,387.5 537.835,387.667 502.5,387.5C 502.5,360.5 502.5,333.5 502.5,306.5C 529.835,306.667 557.169,306.5 584.5,306C 590,300.5 595.5,295 601,289.5C 601.667,275.5 601.667,261.5 601,247.5C 595.5,242 590,236.5 584.5,231C 556.835,230.5 529.169,230.333 501.5,230.5C 501.5,203.5 501.5,176.5 501.5,149.5 Z"/></g>
<style>
    @media (prefers-color-scheme:dark){:root{filter:invert(100%)}}
  </style>
</svg>
