<svg width="312" height="32" viewBox="0 0 312 32" fill="currentColor" xmlns="http://www.w3.org/2000/svg">
<path d="M52.8254 5.58737H56.7727V25.9048H52.8254V5.58737Z"/>
<path d="M69.0317 10.5714H72.7302V25.9048H69.0317V23.746C67.9048 25.4603 66.2222 26.3492 63.9683 26.3492C62.0952 26.3492 60.5714 25.6825 59.3968 24.3492C58.254 22.9841 57.6825 21.1746 57.6825 18.9206V10.5714H61.381V18.4127C61.381 19.8095 61.6508 20.8889 62.1905 21.6508C62.7619 22.381 63.5873 22.746 64.6667 22.746C65.8095 22.746 66.7302 22.3175 67.4286 21.4603C68.1587 20.5714 68.5238 19.3651 68.5238 17.8413V10.5714H69.0317Z"/>
<path d="M83.5873 22.4921V25.9048H81.3016C79.0159 25.9048 77.3016 25.3968 76.1587 24.381C75.0476 23.3333 74.4921 21.6508 74.4921 19.3333V13.8413H72.0635V10.5714H74.4921V6.6984H78.1905V10.5714H83.5238V13.8413H78.1905V19.4286C78.1905 20.4444 78.4127 21.1746 78.8571 21.619C79.3333 22.0317 80.127 22.2381 81.2381 22.2381H83.5873V22.4921Z"/>
<path d="M96.8889 18.0317H86.4762C86.5714 19.5238 86.9683 20.6667 87.6667 21.4603C88.3968 22.2222 89.381 22.6032 90.619 22.6032C91.5714 22.6032 92.3651 22.381 93 21.9365C93.6349 21.4603 94.0476 20.8254 94.2381 20.0317H97.9365C97.5873 21.7143 96.7619 23.0794 95.4603 24.127C94.1587 25.1746 92.5397 25.6984 90.6032 25.6984C88.1587 25.6984 86.2063 24.9365 84.746 23.4127C83.3175 21.8571 82.6032 19.746 82.6032 17.0794V16.9524C82.6032 14.3175 83.3175 12.2063 84.746 10.619C86.2063 9.03175 88.127 8.2381 90.5079 8.2381C92.8889 8.2381 94.7619 8.96825 96.127 10.4286C97.5238 11.8889 98.2222 13.9365 98.2222 16.5714V18.0317H96.8889ZM90.5079 11.3333C89.3968 11.3333 88.4921 11.6984 87.7937 12.4286C87.127 13.127 86.7302 14.127 86.6032 15.4286H94.4127C94.3175 14.0952 93.9365 13.0794 93.2698 12.381C92.6032 11.6825 91.6825 11.3333 90.5079 11.3333Z"/>
<path d="M103.968 10.5714V13.0476C104.476 12.1587 105.143 11.4603 105.968 10.9524C106.825 10.4444 107.778 10.1905 108.825 10.1905V14.0159H107.873C106.635 14.0159 105.651 14.3333 104.921 14.9683C104.222 15.5714 103.873 16.5714 103.873 17.9683V25.9048H100.175V10.5714H103.968Z"/>
<path d="M121.746 10.5714H125.444V25.9048H121.746V23.746C120.619 25.4603 118.937 26.3492 116.683 26.3492C114.81 26.3492 113.286 25.6825 112.111 24.3492C110.968 22.9841 110.397 21.1746 110.397 18.9206V10.5714H114.095V18.4127C114.095 19.8095 114.365 20.8889 114.905 21.6508C115.476 22.381 116.302 22.746 117.381 22.746C118.524 22.746 119.444 22.3175 120.143 21.4603C120.873 20.5714 121.238 19.3651 121.238 17.8413V10.5714H121.746Z"/>
<path d="M139.397 10.5714V25.9048H135.698V23.6508C134.603 25.4603 132.905 26.3651 130.603 26.3651C128.698 26.3651 127.175 25.6984 126.032 24.3651C124.889 23 124.317 21.1587 124.317 18.8413V18.7143C124.317 16.3651 124.889 14.5079 126.032 13.1429C127.206 11.746 128.762 11.0476 130.698 11.0476C132.825 11.0476 134.444 11.9048 135.556 13.619V5.58737H139.254V10.5714H139.397ZM131.619 22.746C132.698 22.746 133.571 22.381 134.238 21.6508C134.937 20.8889 135.286 19.8571 135.286 18.5556V18.4286C135.286 17.127 134.937 16.1111 134.238 15.381C133.571 14.619 132.698 14.2381 131.619 14.2381C130.54 14.2381 129.651 14.619 128.952 15.381C128.286 16.1111 127.952 17.127 127.952 18.4286V18.5556C127.952 19.8571 128.286 20.8889 128.952 21.6508C129.651 22.381 130.54 22.746 131.619 22.746Z"/>
<path d="M152.587 10.5714H156.286V25.9048H152.587V23.746C151.46 25.4603 149.778 26.3492 147.524 26.3492C145.651 26.3492 144.127 25.6825 142.952 24.3492C141.81 22.9841 141.238 21.1746 141.238 18.9206V10.5714H144.937V18.4127C144.937 19.8095 145.206 20.8889 145.746 21.6508C146.317 22.381 147.143 22.746 148.222 22.746C149.365 22.746 150.286 22.3175 150.984 21.4603C151.714 20.5714 152.079 19.3651 152.079 17.8413V10.5714H152.587Z"/>
<path d="M169.73 10.5714V13.0476C170.238 12.1587 170.905 11.4603 171.73 10.9524C172.587 10.4444 173.54 10.1905 174.587 10.1905V14.0159H173.635C172.397 14.0159 171.413 14.3333 170.683 14.9683C169.984 15.5714 169.635 16.5714 169.635 17.9683V25.9048H165.937V10.5714H169.73Z"/>
<path d="M187.508 10.5714H191.206V25.9048H187.508V23.746C186.381 25.4603 184.698 26.3492 182.444 26.3492C180.571 26.3492 179.048 25.6825 177.873 24.3492C176.73 22.9841 176.159 21.1746 176.159 18.9206V10.5714H179.857V18.4127C179.857 19.8095 180.127 20.8889 180.667 21.6508C181.238 22.381 182.063 22.746 183.143 22.746C184.286 22.746 185.206 22.3175 185.905 21.4603C186.635 20.5714 187 19.3651 187 17.8413V10.5714H187.508Z"/>
<path d="M204.365 26.3492C201.857 26.3492 199.841 25.5873 198.317 24.0635C196.825 22.5079 196.079 20.4127 196.079 17.7778V17.6508C196.079 15.0159 196.825 12.9365 198.317 11.4127C199.841 9.85714 201.857 9.07937 204.365 9.07937C205.857 9.07937 207.175 9.39683 208.317 10.0317C209.46 10.6349 210.365 11.4921 211.032 12.6032C211.73 13.7143 212.079 14.9841 212.079 16.4127V16.5397C212.079 18.0317 211.698 19.3175 210.937 20.3968L212.873 22.3333L210.762 24.4444L208.762 22.4444C207.508 25.0476 205.365 26.3492 204.365 26.3492ZM204.365 22.6032C205.54 22.6032 206.508 22.2063 207.27 21.4127C208.032 20.5873 208.413 19.5079 208.413 18.1746V18.0476C208.413 16.7143 208.032 15.6508 207.27 14.8571C206.508 14.0317 205.54 13.619 204.365 13.619C203.19 13.619 202.222 14.0159 201.46 14.8095C200.698 15.6032 200.317 16.6667 200.317 18V18.127C200.317 19.4603 200.698 20.5397 201.46 21.3651C202.222 22.1905 203.19 22.6032 204.365 22.6032Z"/>
<path d="M215.655 5.58737H219.602V25.9048H215.655V5.58737Z"/>
<path d="M233.556 26.3492C231.048 26.3492 229.032 25.5873 227.508 24.0635C226.016 22.5079 225.27 20.4127 225.27 17.7778V17.6508C225.27 15.0159 226.016 12.9365 227.508 11.4127C229.032 9.85714 231.048 9.07937 233.556 9.07937C236.063 9.07937 238.079 9.85714 239.603 11.4127C241.127 12.9365 241.889 15.0159 241.889 17.6508V17.7778C241.889 20.4127 241.127 22.5079 239.603 24.0635C238.079 25.5873 236.063 26.3492 233.556 26.3492ZM233.556 22.6032C234.73 22.6032 235.698 22.2063 236.46 21.4127C237.222 20.5873 237.603 19.5079 237.603 18.1746V18.0476C237.603 16.7143 237.222 15.6508 236.46 14.8571C235.698 14.0317 234.73 13.619 233.556 13.619C232.381 13.619 231.413 14.0159 230.651 14.8095C229.889 15.6032 229.508 16.6667 229.508 18V18.127C229.508 19.4603 229.889 20.5397 230.651 21.3651C231.413 22.1905 232.381 22.6032 233.556 22.6032Z"/>
<path d="M17.7778 0L0 17.7778L14.2222 32L17.7778 0Z"/>
<path d="M18.7936 0L36.5714 17.7778L22.3492 32L18.7936 0Z"/>
</svg>
