<svg xmlns="http://www.w3.org/2000/svg" viewBox="17 30 480 490" fill="currentColor">
  <!-- ZTM Icon only -->
  <path d="M487.93,300.31c0.36,1.3,1.02,2.61,1.03,3.91c0.06,22.98-0.01,45.96,0.12,68.94c0.02,2.9-0.94,4.43-3.42,5.85
    c-74.98,43.08-149.92,86.24-224.89,129.33c-1.07,0.61-2.55,0.52-3.84,0.76c0.36-1.88,1.02-3.77,1.03-5.65
    c0.07-23.14,0.04-46.27,0.04-69.41c40.1-23.27,80.22-46.51,120.29-69.82c14.19-8.26,28.28-16.7,42.41-25.06
    c4.52-2.42,9.12-4.71,13.55-7.29C452.17,321.39,470.04,310.83,487.93,300.31z"/>
  <path d="M28.01,245.7c-0.34-1.67-0.97-3.33-0.97-5c-0.07-22.3,0.05-44.61-0.14-66.91c-0.03-3.7,1.27-5.56,4.36-7.34
    c74.54-42.8,149.02-85.72,223.55-128.55c1.21-0.7,2.85-0.67,4.28-0.98c-0.37,1.88-1.05,3.76-1.05,5.64
    c-0.07,23.13-0.05,46.27-0.05,69.4c-46.14,26.76-92.29,53.5-138.41,80.3c-8.16,4.74-16.18,9.72-24.27,14.59
    c-2.05,0.54-4.34,0.67-6.11,1.69C74.19,217.23,59.2,226,44.32,234.92C38.74,238.26,33.44,242.09,28.01,245.7z"/>
  <path d="M28,377.7c-0.33-1.49-0.96-2.98-0.96-4.47c-0.06-22.62,0.03-45.24-0.13-67.86c-0.02-3.29,1-4.99,3.84-6.61
    c14.85-8.45,29.57-17.15,44.33-25.76c22.42-12.9,44.84-25.8,67.26-38.7c1.33-0.67,2.7-1.27,3.99-2.02
    c35.86-20.63,71.71-41.3,107.6-61.88c1.5-0.86,3.42-1,5.14-1.48c-0.36,1.88-1.02,3.77-1.03,5.65c-0.07,23.14-0.04,46.27-0.04,69.41
    c-16.42,9.65-32.83,19.3-49.25,28.95c-22.08,12.75-44.15,25.5-66.23,38.25c-1.74,0.94-3.5,1.84-5.22,2.82
    c-14.01,8.04-28.02,16.09-42.02,24.13c-1.55,0.52-3.24,0.8-4.62,1.61c-16.17,9.44-32.33,18.9-48.41,28.5
    C37.37,371.16,32.75,374.53,28,377.7z"/>
  <path d="M487.88,169.99c0.04,24.29,0.16,48.59-0.03,72.88c-0.01,1.74-1.85,4.11-3.49,5.09
    c-12.14,7.23-24.45,14.17-36.68,21.25c-2.29,1.33-4.48,2.84-6.71,4.26c-22.27,12.8-44.53,25.6-66.8,38.4
    c-20.51,11.7-41.02,23.4-61.53,35.09c-18.2,10.37-36.41,20.74-54.61,31.1c-0.01-25.3-0.02-50.61-0.03-75.91
    c16.62-9.66,33.24-19.31,49.87-28.97c21.48-12.36,42.96-24.72,64.43-37.11c0.54-0.31,0.92-0.91,1.38-1.38
    c0.92-0.32,1.93-0.5,2.76-0.97c14.16-8.19,28.31-16.4,42.44-24.65c0.79-0.46,1.33-1.33,1.99-2.01c2.04-0.55,4.33-0.69,6.08-1.73
    c14.69-8.66,29.24-17.55,43.93-26.21C476.4,175.86,482.2,173.02,487.88,169.99z"/>
  <path d="M28,377.7c4.75-3.17,9.37-6.54,14.26-9.46c16.08-9.6,32.24-19.06,48.41-28.5c1.38-0.81,3.07-1.09,4.62-1.61
    c1.74,1.23,3.39,2.6,5.22,3.67c52.49,30.76,104.99,61.5,157.49,92.23c0,23.14,0.03,46.27-0.04,69.41
    c-0.01,1.89-0.67,3.77-1.03,5.65c-22.52-12.87-45.06-25.7-67.55-38.62C135.57,439.57,81.79,408.62,28,377.7z" opacity="0.75"/>
  <path d="M487.88,169.99c-5.68,3.03-11.47,5.87-17.02,9.14c-14.69,8.66-29.24,17.56-43.93,26.21
    c-1.76,1.04-4.04,1.17-6.08,1.73c-0.6-0.27-1.23-0.49-1.8-0.82C365.37,174.83,311.68,143.4,258,111.97
    c0-23.13-0.03-46.27,0.05-69.4c0.01-1.88,0.69-3.76,1.05-5.64c19.93,11.37,39.88,22.69,59.77,34.12
    c54.94,31.6,109.85,63.23,164.74,94.92C485.25,166.92,486.46,168.63,487.88,169.99z" opacity="0.75"/>
  <path d="M142.35,234.29c-22.42,12.9-44.84,25.8-67.26,38.7c-15.69-9.1-31.38-18.19-47.07-27.29
    c5.43-3.61,10.72-7.43,16.3-10.78c14.89-8.92,29.87-17.68,44.89-26.37c1.77-1.02,4.06-1.15,6.11-1.69
    C110.99,216,126.67,225.14,142.35,234.29z" opacity="0.75"/>
  <path d="M374.16,311.87c22.27-12.8,44.53-25.6,66.8-38.4c15.66,8.94,31.31,17.89,46.97,26.83
    c-17.89,10.52-35.76,21.08-53.68,31.55c-4.43,2.58-9.03,4.87-13.55,7.29C405.18,330.06,389.67,320.96,374.16,311.87z" opacity="0.75"/>
  <path d="M374.16,311.87c15.51,9.09,31.03,18.18,46.54,27.28c-14.13,8.36-28.22,16.81-42.41,25.06
    c-40.07,23.31-80.19,46.55-120.29,69.82c-52.5-30.74-105-61.47-157.49-92.23c-1.83-1.07-3.48-2.44-5.22-3.67
    c14.01-8.05,28.01-16.1,42.02-24.13c1.71-0.98,3.48-1.88,5.22-2.82c10.01,5.89,19.97,11.84,30.03,17.65
    c28.47,16.45,56.97,32.84,85.46,49.25c18.2-10.37,36.41-20.73,54.61-31.1C333.14,335.27,353.65,323.57,374.16,311.87z" opacity="0.5"/>
  <path d="M142.35,234.29c-15.68-9.14-31.35-18.29-47.03-27.43c8.09-4.87,16.11-9.85,24.27-14.59
    c46.12-26.8,92.27-53.54,138.41-80.3c53.68,31.43,107.36,62.86,161.05,94.29c0.56,0.33,1.2,0.55,1.8,0.82
    c-0.66,0.68-1.21,1.55-1.99,2.01c-14.12,8.25-28.27,16.47-42.44,24.65c-0.83,0.48-1.83,0.66-2.76,0.97
    c-16.41-9.49-32.78-19.03-49.22-28.46c-21.76-12.49-43.57-24.89-65.37-37.33c-1.72,0.48-3.64,0.62-5.14,1.48
    c-35.89,20.58-71.74,41.25-107.6,61.88C145.04,233.01,143.68,233.62,142.35,234.29z" opacity="0.5"/>
  <path d="M259.08,168.91c21.79,12.44,43.6,24.84,65.37,37.33c16.44,9.43,32.81,18.97,49.22,28.46
    c-0.45,0.47-0.83,1.07-1.38,1.38c-21.47,12.39-42.95,24.74-64.43,37.11c-16.62-9.74-33.23-19.48-49.85-29.22
    c0-23.14-0.03-46.27,0.04-69.41C258.05,172.68,258.72,170.79,259.08,168.91z" opacity="0.75"/>
  <path d="M258.02,378.07c-28.49-16.41-56.99-32.8-85.46-49.25c-10.05-5.81-20.02-11.76-30.03-17.65
    c22.08-12.75,44.15-25.5,66.23-38.25c1.25,0.81,2.47,1.67,3.75,2.42c15.16,8.95,30.32,17.88,45.48,26.82
    C258,327.46,258.01,352.76,258.02,378.07z" opacity="0.75"/>
  <path d="M257.99,302.16c-15.16-8.94-30.33-17.87-45.48-26.82c-1.28-0.76-2.5-1.61-3.75-2.42
    c16.41-9.65,32.83-19.3,49.25-28.95c16.62,9.74,33.23,19.48,49.85,29.22C291.23,282.85,274.61,292.5,257.99,302.16z" opacity="0.4"/>
</svg>
